<svg width="390" height="468" viewBox="0 0 390 468" fill="none" xmlns="http://www.w3.org/2000/svg">
<path d="M197 130C258.562 130 310.13 87.2083 323.581 29.7467C327.357 13.6143 340.431 0 357 0H390V798H0V0H37C53.5685 0 66.6426 13.6143 70.4191 29.7467C83.8703 87.2083 135.438 130 197 130Z" fill="#262450"/>
<path d="M197 130.5C258.8 130.5 310.565 87.5433 324.068 29.8606C327.808 13.8847 340.728 0.5 357 0.5H389.5V797.5H0.5V0.5H37C53.2716 0.5 66.1924 13.8847 69.9322 29.8607C83.4352 87.5433 135.2 130.5 197 130.5Z" stroke="url(#paint0_linear_12_1740)" stroke-opacity="0.5" style="mix-blend-mode:overlay"/>
<defs>
<linearGradient id="paint0_linear_12_1740" x1="192" y1="-10.5" x2="192.5" y2="262.5" gradientUnits="userSpaceOnUse">
<stop stop-color="white"/>
<stop offset="1" stop-color="white" stop-opacity="0"/>
</linearGradient>
</defs>
</svg>
